# xmcd
#
# Track frame offsets: 
#        300
#        16406
#        34649
#        51830
#        69120
#        82133
#        107435
#        127135
#        147337
#        160697
#        177361
#        200587
#        215227
#
# Disc length: 3304 seconds
#
# Revision: 0
# Processed by: cddbd v1.5.2PL0 Copyright (c) Steve Scherf et al.
# Submitted via: ExactAudioCopy v1.0b1
#
DISCID=bc0ce40d
DTITLE=Robert Cray - Heavy Picks
DYEAR=1999
DGENRE=Contemporary Blues
TTITLE0=Phone Booth
TTITLE1=Forecast (Calls For Pain)
TTITLE2=Playin' In The Dirt
TTITLE3=Don't Be Afraid Of The Dark
TTITLE4=Too Many Cooks
TTITLE5=The Dream
TTITLE6=Right Next Door (Because Of Me)
TTITLE7=Consequences
TTITLE8=Bad Influence
TTITLE9=I Guess I Showed Her
TTITLE10=I Shiver
TTITLE11=Trick Or Treat
TTITLE12=I Was Warned
EXTD=
EXTT0=
EXTT1=
EXTT2=
EXTT3=
EXTT4=
EXTT5=
EXTT6=
EXTT7=
EXTT8=
EXTT9=
EXTT10=
EXTT11=
EXTT12=
PLAYORDER=
